<svg xmlns="http://www.w3.org/2000/svg" xmlns:xlink="http://www.w3.org/1999/xlink" contentStyleType="text/css" data-diagram-type="CLASS" height="1436px" preserveAspectRatio="none" style="width:793px;height:1436px;background:#FFFFFF;" version="1.1" viewBox="0 0 793 1436" width="793px" zoomAndPan="magnify"><defs/><g><!--class Lobby--><g class="entity" data-entity="Lobby" data-source-line="3" data-uid="ent0002" id="entity_Lobby"><rect fill="#F1F1F1" height="96.8906" rx="2.5" ry="2.5" style="stroke:#181818;stroke-width:0.5;" width="289.9766" x="185.47" y="7"/><ellipse cx="304.9964" cy="23" fill="#ADD1B2" rx="11" ry="11" style="stroke:#181818;stroke-width:1;"/><path d="M307.9651,28.6406 Q307.387,28.9375 306.7464,29.0781 Q306.1057,29.2344 305.4026,29.2344 Q302.9026,29.2344 301.5745,27.5938 Q300.262,25.9375 300.262,22.8125 Q300.262,19.6875 301.5745,18.0313 Q302.9026,16.375 305.4026,16.375 Q306.1057,16.375 306.7464,16.5313 Q307.4026,16.6875 307.9651,16.9844 L307.9651,19.7031 Q307.3401,19.125 306.7464,18.8594 Q306.1526,18.5781 305.5276,18.5781 Q304.1839,18.5781 303.4964,19.6563 Q302.8089,20.7188 302.8089,22.8125 Q302.8089,24.9063 303.4964,25.9844 Q304.1839,27.0469 305.5276,27.0469 Q306.1526,27.0469 306.7464,26.7813 Q307.3401,26.5 307.9651,25.9219 L307.9651,28.6406 Z " fill="#000000"/><text fill="#000000" font-family="sans-serif" font-size="14" lengthAdjust="spacing" textLength="42.4238" x="325.4964" y="27.8467">Lobby</text><line style="stroke:#181818;stroke-width:0.5;" x1="186.47" x2="474.4466" y1="39" y2="39"/><rect fill="none" height="6" style="stroke:#C82930;stroke-width:1;" width="6" x="193.47" y="49.6484"/><text fill="#000000" font-family="sans-serif" font-size="14" lengthAdjust="spacing" textLength="263.9766" x="205.47" y="55.9951">vector&lt;GameSession&gt; active_games</text><rect fill="none" height="6" style="stroke:#C82930;stroke-width:1;" width="6" x="193.47" y="65.9453"/><text fill="#000000" font-family="sans-serif" font-size="14" lengthAdjust="spacing" textLength="184.707" x="205.47" y="72.292">RaceMonitor race_monitor</text><rect fill="none" height="6" style="stroke:#C82930;stroke-width:1;" width="6" x="193.47" y="82.2422"/><text fill="#000000" font-family="sans-serif" font-size="14" lengthAdjust="spacing" textLength="250.8789" x="205.47" y="88.5889">shared ClientMonitor client_monitor</text><line style="stroke:#181818;stroke-width:0.5;" x1="186.47" x2="474.4466" y1="95.8906" y2="95.8906"/></g><!--class Acceptor--><g class="entity" data-entity="Acceptor" data-source-line="9" data-uid="ent0003" id="entity_Acceptor"><rect fill="#F1F1F1" height="64.2969" rx="2.5" ry="2.5" style="stroke:#181818;stroke-width:0.5;" width="276.8789" x="510.02" y="23.3"/><ellipse cx="613.0683" cy="39.3" fill="#ADD1B2" rx="11" ry="11" style="stroke:#181818;stroke-width:1;"/><path d="M616.0371,44.9406 Q615.459,45.2375 614.8183,45.3781 Q614.1777,45.5344 613.4746,45.5344 Q610.9746,45.5344 609.6465,43.8938 Q608.334,42.2375 608.334,39.1125 Q608.334,35.9875 609.6465,34.3313 Q610.9746,32.675 613.4746,32.675 Q614.1777,32.675 614.8183,32.8313 Q615.4746,32.9875 616.0371,33.2844 L616.0371,36.0031 Q615.4121,35.425 614.8183,35.1594 Q614.2246,34.8781 613.5996,34.8781 Q612.2558,34.8781 611.5683,35.9563 Q610.8808,37.0188 610.8808,39.1125 Q610.8808,41.2063 611.5683,42.2844 Q612.2558,43.3469 613.5996,43.3469 Q614.2246,43.3469 614.8183,43.0813 Q615.4121,42.8 616.0371,42.2219 L616.0371,44.9406 Z " fill="#000000"/><text fill="#000000" font-family="sans-serif" font-size="14" lengthAdjust="spacing" textLength="62.2822" x="633.5683" y="44.1467">Acceptor</text><line style="stroke:#181818;stroke-width:0.5;" x1="511.02" x2="785.8989" y1="55.3" y2="55.3"/><rect fill="none" height="6" style="stroke:#C82930;stroke-width:1;" width="6" x="518.02" y="65.9484"/><text fill="#000000" font-family="sans-serif" font-size="14" lengthAdjust="spacing" textLength="250.8789" x="530.02" y="72.2951">shared ClientMonitor client_monitor</text><line style="stroke:#181818;stroke-width:0.5;" x1="511.02" x2="785.8989" y1="79.5969" y2="79.5969"/></g><!--class RaceMonitor--><g class="entity" data-entity="RaceMonitor" data-source-line="13" data-uid="ent0004" id="entity_RaceMonitor"><rect fill="#F1F1F1" height="80.5938" rx="2.5" ry="2.5" style="stroke:#181818;stroke-width:0.5;" width="266.0918" x="11.41" y="180.9"/><ellipse cx="96.2884" cy="196.9" fill="#ADD1B2" rx="11" ry="11" style="stroke:#181818;stroke-width:1;"/><path d="M99.2572,202.5406 Q98.679,202.8375 98.0384,202.9781 Q97.3978,203.1344 96.6947,203.1344 Q94.1947,203.1344 92.8665,201.4938 Q91.554,199.8375 91.554,196.7125 Q91.554,193.5875 92.8665,191.9313 Q94.1947,190.275 96.6947,190.275 Q97.3978,190.275 98.0384,190.4313 Q98.6947,190.5875 99.2572,190.8844 L99.2572,193.6031 Q98.6322,193.025 98.0384,192.7594 Q97.4447,192.4781 96.8197,192.4781 Q95.4759,192.4781 94.7884,193.5563 Q94.1009,194.6188 94.1009,196.7125 Q94.1009,198.8063 94.7884,199.8844 Q95.4759,200.9469 96.8197,200.9469 Q97.4447,200.9469 98.0384,200.6813 Q98.6322,200.4 99.2572,199.8219 L99.2572,202.5406 Z " fill="#000000"/><text fill="#000000" font-family="sans-serif" font-size="14" lengthAdjust="spacing" textLength="87.835" x="116.7884" y="201.7467">RaceMonitor</text><line style="stroke:#181818;stroke-width:0.5;" x1="12.41" x2="276.5018" y1="212.9" y2="212.9"/><rect fill="none" height="6" style="stroke:#C82930;stroke-width:1;" width="6" x="19.41" y="223.5484"/><text fill="#000000" font-family="sans-serif" font-size="14" lengthAdjust="spacing" textLength="76.7607" x="31.41" y="229.8951">mutex mtx</text><rect fill="none" height="6" style="stroke:#C82930;stroke-width:1;" width="6" x="19.41" y="239.8453"/><text fill="#000000" font-family="sans-serif" font-size="14" lengthAdjust="spacing" textLength="240.0918" x="31.41" y="246.192">map&lt;uint16_t, RaceStruct&gt; races</text><line style="stroke:#181818;stroke-width:0.5;" x1="12.41" x2="276.5018" y1="253.4938" y2="253.4938"/></g><!--class RaceStruct--><g class="entity" data-entity="RaceStruct" data-source-line="18" data-uid="ent0005" id="entity_RaceStruct"><rect fill="#F1F1F1" height="64.2969" rx="2.5" ry="2.5" style="stroke:#181818;stroke-width:0.5;" width="191.5938" x="48.66" y="385.79"/><ellipse cx="101.8026" cy="401.79" fill="#ADD1B2" rx="11" ry="11" style="stroke:#181818;stroke-width:1;"/><path d="M104.7713,407.4306 Q104.1932,407.7275 103.5526,407.8681 Q102.912,408.0244 102.2088,408.0244 Q99.7088,408.0244 98.3807,406.3838 Q97.0682,404.7275 97.0682,401.6025 Q97.0682,398.4775 98.3807,396.8213 Q99.7088,395.165 102.2088,395.165 Q102.912,395.165 103.5526,395.3213 Q104.2088,395.4775 104.7713,395.7744 L104.7713,398.4931 Q104.1463,397.915 103.5526,397.6494 Q102.9588,397.3681 102.3338,397.3681 Q100.9901,397.3681 100.3026,398.4463 Q99.6151,399.5088 99.6151,401.6025 Q99.6151,403.6963 100.3026,404.7744 Q100.9901,405.8369 102.3338,405.8369 Q102.9588,405.8369 103.5526,405.5713 Q104.1463,405.29 104.7713,404.7119 L104.7713,407.4306 Z " fill="#000000"/><text fill="#000000" font-family="sans-serif" font-size="14" lengthAdjust="spacing" textLength="76.8086" x="122.3026" y="406.6367">RaceStruct</text><line style="stroke:#181818;stroke-width:0.5;" x1="49.66" x2="239.2538" y1="417.79" y2="417.79"/><rect fill="none" height="6" style="stroke:#C82930;stroke-width:1;" width="6" x="56.66" y="428.4384"/><text fill="#000000" font-family="sans-serif" font-size="14" lengthAdjust="spacing" textLength="165.5938" x="68.66" y="434.7851">vector&lt;Client*&gt; clients</text><line style="stroke:#181818;stroke-width:0.5;" x1="49.66" x2="239.2538" y1="442.0869" y2="442.0869"/></g><!--class Client--><g class="entity" data-entity="Client" data-source-line="22" data-uid="ent0006" id="entity_Client"><rect fill="#F1F1F1" height="80.5938" rx="2.5" ry="2.5" style="stroke:#181818;stroke-width:0.5;" width="198.1289" x="75.39" y="511.08"/><ellipse cx="149.9393" cy="527.08" fill="#ADD1B2" rx="11" ry="11" style="stroke:#181818;stroke-width:1;"/><path d="M152.9081,532.7206 Q152.3299,533.0175 151.6893,533.1581 Q151.0487,533.3144 150.3456,533.3144 Q147.8456,533.3144 146.5174,531.6738 Q145.2049,530.0175 145.2049,526.8925 Q145.2049,523.7675 146.5174,522.1113 Q147.8456,520.455 150.3456,520.455 Q151.0487,520.455 151.6893,520.6113 Q152.3456,520.7675 152.9081,521.0644 L152.9081,523.7831 Q152.2831,523.205 151.6893,522.9394 Q151.0956,522.6581 150.4706,522.6581 Q149.1268,522.6581 148.4393,523.7363 Q147.7518,524.7988 147.7518,526.8925 Q147.7518,528.9863 148.4393,530.0644 Q149.1268,531.1269 150.4706,531.1269 Q151.0956,531.1269 151.6893,530.8613 Q152.2831,530.58 152.9081,530.0019 L152.9081,532.7206 Z " fill="#000000"/><text fill="#000000" font-family="sans-serif" font-size="14" lengthAdjust="spacing" textLength="40.5303" x="170.4393" y="531.9267">Client</text><line style="stroke:#181818;stroke-width:0.5;" x1="76.39" x2="272.5189" y1="543.08" y2="543.08"/><rect fill="none" height="6" style="stroke:#C82930;stroke-width:1;" width="6" x="83.39" y="553.7284"/><text fill="#000000" font-family="sans-serif" font-size="14" lengthAdjust="spacing" textLength="172.1289" x="95.39" y="560.0751">ReceiverThread receiver</text><rect fill="none" height="6" style="stroke:#C82930;stroke-width:1;" width="6" x="83.39" y="570.0253"/><text fill="#000000" font-family="sans-serif" font-size="14" lengthAdjust="spacing" textLength="151.375" x="95.39" y="576.372">SenderThread sender</text><line style="stroke:#181818;stroke-width:0.5;" x1="76.39" x2="272.5189" y1="583.6738" y2="583.6738"/></g><!--class GameSession--><g class="entity" data-entity="GameSession" data-source-line="27" data-uid="ent0007" id="entity_GameSession"><rect fill="#F1F1F1" height="64.2969" rx="2.5" ry="2.5" style="stroke:#181818;stroke-width:0.5;" width="182.5703" x="369.17" y="291.49"/><ellipse cx="409.134" cy="307.49" fill="#ADD1B2" rx="11" ry="11" style="stroke:#181818;stroke-width:1;"/><path d="M412.1028,313.1306 Q411.5246,313.4275 410.884,313.5681 Q410.2434,313.7244 409.5403,313.7244 Q407.0403,313.7244 405.7121,312.0838 Q404.3996,310.4275 404.3996,307.3025 Q404.3996,304.1775 405.7121,302.5213 Q407.0403,300.865 409.5403,300.865 Q410.2434,300.865 410.884,301.0213 Q411.5403,301.1775 412.1028,301.4744 L412.1028,304.1931 Q411.4778,303.615 410.884,303.3494 Q410.2903,303.0681 409.6653,303.0681 Q408.3215,303.0681 407.634,304.1463 Q406.9465,305.2088 406.9465,307.3025 Q406.9465,309.3963 407.634,310.4744 Q408.3215,311.5369 409.6653,311.5369 Q410.2903,311.5369 410.884,311.2713 Q411.4778,310.99 412.1028,310.4119 L412.1028,313.1306 Z " fill="#000000"/><text fill="#000000" font-family="sans-serif" font-size="14" lengthAdjust="spacing" textLength="95.0947" x="428.6816" y="312.3367">GameSession</text><line style="stroke:#181818;stroke-width:0.5;" x1="370.17" x2="550.7403" y1="323.49" y2="323.49"/><rect fill="none" height="6" style="stroke:#C82930;stroke-width:1;" width="6" x="377.17" y="334.1384"/><text fill="#000000" font-family="sans-serif" font-size="14" lengthAdjust="spacing" textLength="156.5703" x="389.17" y="340.4851">GameLoop game_loop</text><line style="stroke:#181818;stroke-width:0.5;" x1="370.17" x2="550.7403" y1="347.7869" y2="347.7869"/></g><!--class GameLoop--><g class="entity" data-entity="GameLoop" data-source-line="31" data-uid="ent0008" id="entity_GameLoop"><rect fill="#F1F1F1" height="129.4844" rx="2.5" ry="2.5" style="stroke:#181818;stroke-width:0.5;" width="237.9551" x="213.48" y="809.97"/><ellipse cx="290.4595" cy="825.97" fill="#ADD1B2" rx="11" ry="11" style="stroke:#181818;stroke-width:1;"/><path d="M293.4282,831.6106 Q292.8501,831.9075 292.2095,832.0481 Q291.5689,832.2044 290.8657,832.2044 Q288.3657,832.2044 287.0376,830.5638 Q285.7251,828.9075 285.7251,825.7825 Q285.7251,822.6575 287.0376,821.0013 Q288.3657,819.345 290.8657,819.345 Q291.5689,819.345 292.2095,819.5013 Q292.8657,819.6575 293.4282,819.9544 L293.4282,822.6731 Q292.8032,822.095 292.2095,821.8294 Q291.6157,821.5481 290.9907,821.5481 Q289.647,821.5481 288.9595,822.6263 Q288.272,823.6888 288.272,825.7825 Q288.272,827.8763 288.9595,828.9544 Q289.647,830.0169 290.9907,830.0169 Q291.6157,830.0169 292.2095,829.7513 Q292.8032,829.47 293.4282,828.8919 L293.4282,831.6106 Z " fill="#000000"/><text fill="#000000" font-family="sans-serif" font-size="14" lengthAdjust="spacing" textLength="75.4961" x="310.9595" y="830.8167">GameLoop</text><line style="stroke:#181818;stroke-width:0.5;" x1="214.48" x2="450.4351" y1="841.97" y2="841.97"/><rect fill="none" height="6" style="stroke:#C82930;stroke-width:1;" width="6" x="221.48" y="852.6184"/><text fill="#000000" font-family="sans-serif" font-size="14" lengthAdjust="spacing" textLength="144.874" x="233.48" y="858.9651">vector&lt;Race&gt; races</text><rect fill="none" height="6" style="stroke:#C82930;stroke-width:1;" width="6" x="221.48" y="868.9153"/><text fill="#000000" font-family="sans-serif" font-size="14" lengthAdjust="spacing" textLength="204.7432" x="233.48" y="875.262">Queue&lt;Event&gt; event_queue</text><rect fill="none" height="6" style="stroke:#C82930;stroke-width:1;" width="6" x="221.48" y="885.2122"/><text fill="#000000" font-family="sans-serif" font-size="14" lengthAdjust="spacing" textLength="211.9551" x="233.48" y="891.5589">shared RaceStruct race_struct</text><line style="stroke:#181818;stroke-width:0.5;" x1="214.48" x2="450.4351" y1="898.8606" y2="898.8606"/><ellipse cx="224.48" cy="912.5091" fill="#84BE84" rx="3" ry="3" style="stroke:#038048;stroke-width:1;"/><text fill="#000000" font-family="sans-serif" font-size="14" lengthAdjust="spacing" textLength="130.416" x="233.48" y="915.8557">broadcast_states()</text><ellipse cx="224.48" cy="928.8059" fill="#84BE84" rx="3" ry="3" style="stroke:#038048;stroke-width:1;"/><text fill="#000000" font-family="sans-serif" font-size="14" lengthAdjust="spacing" textLength="125.4053" x="233.48" y="932.1526">broadcast_finish()</text></g><!--class Race--><g class="entity" data-entity="Race" data-source-line="39" data-uid="ent0009" id="entity_Race"><rect fill="#F1F1F1" height="80.5938" rx="2.5" ry="2.5" style="stroke:#181818;stroke-width:0.5;" width="155.999" x="254.46" y="1000.46"/><ellipse cx="310.9009" cy="1016.46" fill="#ADD1B2" rx="11" ry="11" style="stroke:#181818;stroke-width:1;"/><path d="M313.8697,1022.1006 Q313.2915,1022.3975 312.6509,1022.5381 Q312.0103,1022.6944 311.3072,1022.6944 Q308.8072,1022.6944 307.479,1021.0538 Q306.1665,1019.3975 306.1665,1016.2725 Q306.1665,1013.1475 307.479,1011.4913 Q308.8072,1009.835 311.3072,1009.835 Q312.0103,1009.835 312.6509,1009.9913 Q313.3072,1010.1475 313.8697,1010.4444 L313.8697,1013.1631 Q313.2447,1012.585 312.6509,1012.3194 Q312.0572,1012.0381 311.4322,1012.0381 Q310.0884,1012.0381 309.4009,1013.1163 Q308.7134,1014.1788 308.7134,1016.2725 Q308.7134,1018.3663 309.4009,1019.4444 Q310.0884,1020.5069 311.4322,1020.5069 Q312.0572,1020.5069 312.6509,1020.2413 Q313.2447,1019.96 313.8697,1019.3819 L313.8697,1022.1006 Z " fill="#000000"/><text fill="#000000" font-family="sans-serif" font-size="14" lengthAdjust="spacing" textLength="34.6172" x="331.4009" y="1021.3067">Race</text><line style="stroke:#181818;stroke-width:0.5;" x1="255.46" x2="409.459" y1="1032.46" y2="1032.46"/><rect fill="none" height="6" style="stroke:#C82930;stroke-width:1;" width="6" x="262.46" y="1043.1084"/><text fill="#000000" font-family="sans-serif" font-size="14" lengthAdjust="spacing" textLength="125.7539" x="274.46" y="1049.4551">vector&lt;Car&gt; cars</text><line style="stroke:#181818;stroke-width:0.5;" x1="255.46" x2="409.459" y1="1056.7569" y2="1056.7569"/><ellipse cx="265.46" cy="1070.4053" fill="#84BE84" rx="3" ry="3" style="stroke:#038048;stroke-width:1;"/><text fill="#000000" font-family="sans-serif" font-size="14" lengthAdjust="spacing" textLength="129.999" x="274.46" y="1073.752">update_positions()</text></g><!--class Car--><g class="entity" data-entity="Car" data-source-line="44" data-uid="ent0010" id="entity_Car"><rect fill="#F1F1F1" height="113.1875" rx="2.5" ry="2.5" style="stroke:#181818;stroke-width:0.5;" width="112.2422" x="276.33" y="1142.05"/><ellipse cx="316.5893" cy="1158.05" fill="#ADD1B2" rx="11" ry="11" style="stroke:#181818;stroke-width:1;"/><path d="M319.5581,1163.6906 Q318.98,1163.9875 318.3393,1164.1281 Q317.6987,1164.2844 316.9956,1164.2844 Q314.4956,1164.2844 313.1675,1162.6438 Q311.855,1160.9875 311.855,1157.8625 Q311.855,1154.7375 313.1675,1153.0813 Q314.4956,1151.425 316.9956,1151.425 Q317.6987,1151.425 318.3393,1151.5813 Q318.9956,1151.7375 319.5581,1152.0344 L319.5581,1154.7531 Q318.9331,1154.175 318.3393,1153.9094 Q317.7456,1153.6281 317.1206,1153.6281 Q315.7768,1153.6281 315.0893,1154.7063 Q314.4018,1155.7688 314.4018,1157.8625 Q314.4018,1159.9563 315.0893,1161.0344 Q315.7768,1162.0969 317.1206,1162.0969 Q317.7456,1162.0969 318.3393,1161.8313 Q318.9331,1161.55 319.5581,1160.9719 L319.5581,1163.6906 Z " fill="#000000"/><text fill="#000000" font-family="sans-serif" font-size="14" lengthAdjust="spacing" textLength="24.1104" x="336.2025" y="1162.8967">Car</text><line style="stroke:#181818;stroke-width:0.5;" x1="277.33" x2="387.5722" y1="1174.05" y2="1174.05"/><rect fill="none" height="6" style="stroke:#C82930;stroke-width:1;" width="6" x="284.33" y="1184.6984"/><text fill="#000000" font-family="sans-serif" font-size="14" lengthAdjust="spacing" textLength="42.2939" x="296.33" y="1191.0451">speed</text><rect fill="none" height="6" style="stroke:#C82930;stroke-width:1;" width="6" x="284.33" y="1200.9953"/><text fill="#000000" font-family="sans-serif" font-size="14" lengthAdjust="spacing" textLength="86.2422" x="296.33" y="1207.342">acceleration</text><rect fill="none" height="6" style="stroke:#C82930;stroke-width:1;" width="6" x="284.33" y="1217.2922"/><text fill="#000000" font-family="sans-serif" font-size="14" lengthAdjust="spacing" textLength="69.7266" x="296.33" y="1223.6389">drivability</text><rect fill="none" height="6" style="stroke:#C82930;stroke-width:1;" width="6" x="284.33" y="1233.5891"/><text fill="#000000" font-family="sans-serif" font-size="14" lengthAdjust="spacing" textLength="36.8047" x="296.33" y="1239.9357">mass</text><line style="stroke:#181818;stroke-width:0.5;" x1="277.33" x2="387.5722" y1="1247.2375" y2="1247.2375"/></g><!--class CarPhysics--><g class="entity" data-entity="CarPhysics" data-source-line="51" data-uid="ent0011" id="entity_CarPhysics"><rect fill="#F1F1F1" height="96.8906" rx="2.5" ry="2.5" style="stroke:#181818;stroke-width:0.5;" width="134.3291" x="265.29" y="1332.24"/><ellipse cx="292.1895" cy="1348.24" fill="#ADD1B2" rx="11" ry="11" style="stroke:#181818;stroke-width:1;"/><path d="M295.1583,1353.8806 Q294.5801,1354.1775 293.9395,1354.3181 Q293.2989,1354.4744 292.5958,1354.4744 Q290.0958,1354.4744 288.7676,1352.8338 Q287.4551,1351.1775 287.4551,1348.0525 Q287.4551,1344.9275 288.7676,1343.2713 Q290.0958,1341.615 292.5958,1341.615 Q293.2989,1341.615 293.9395,1341.7713 Q294.5958,1341.9275 295.1583,1342.2244 L295.1583,1344.9431 Q294.5333,1344.365 293.9395,1344.0994 Q293.3458,1343.8181 292.7208,1343.8181 Q291.377,1343.8181 290.6895,1344.8963 Q290.002,1345.9588 290.002,1348.0525 Q290.002,1350.1463 290.6895,1351.2244 Q291.377,1352.2869 292.7208,1352.2869 Q293.3458,1352.2869 293.9395,1352.0213 Q294.5333,1351.74 295.1583,1351.1619 L295.1583,1353.8806 Z " fill="#000000"/><text fill="#000000" font-family="sans-serif" font-size="14" lengthAdjust="spacing" textLength="75.8857" x="308.8338" y="1353.0867">CarPhysics</text><line style="stroke:#181818;stroke-width:0.5;" x1="266.29" x2="398.6191" y1="1364.24" y2="1364.24"/><line style="stroke:#181818;stroke-width:0.5;" x1="266.29" x2="398.6191" y1="1372.24" y2="1372.24"/><ellipse cx="276.29" cy="1385.8884" fill="#84BE84" rx="3" ry="3" style="stroke:#038048;stroke-width:1;"/><text fill="#000000" font-family="sans-serif" font-size="14" lengthAdjust="spacing" textLength="84.4512" x="285.29" y="1389.2351">accelerate()</text><ellipse cx="276.29" cy="1402.1853" fill="#84BE84" rx="3" ry="3" style="stroke:#038048;stroke-width:1;"/><text fill="#000000" font-family="sans-serif" font-size="14" lengthAdjust="spacing" textLength="50.8662" x="285.29" y="1405.532">brake()</text><ellipse cx="276.29" cy="1418.4822" fill="#84BE84" rx="3" ry="3" style="stroke:#038048;stroke-width:1;"/><text fill="#000000" font-family="sans-serif" font-size="14" lengthAdjust="spacing" textLength="108.3291" x="285.29" y="1421.8289">turnLeft/Right()</text></g><!--class ReceiverThread--><g class="entity" data-entity="ReceiverThread" data-source-line="57" data-uid="ent0012" id="entity_ReceiverThread"><rect fill="#F1F1F1" height="64.2969" rx="2.5" ry="2.5" style="stroke:#181818;stroke-width:0.5;" width="182.8711" x="241.02" y="668.68"/><ellipse cx="274.2072" cy="684.68" fill="#ADD1B2" rx="11" ry="11" style="stroke:#181818;stroke-width:1;"/><path d="M277.176,690.3206 Q276.5978,690.6175 275.9572,690.7581 Q275.3166,690.9144 274.6135,690.9144 Q272.1135,690.9144 270.7853,689.2738 Q269.4728,687.6175 269.4728,684.4925 Q269.4728,681.3675 270.7853,679.7113 Q272.1135,678.055 274.6135,678.055 Q275.3166,678.055 275.9572,678.2113 Q276.6135,678.3675 277.176,678.6644 L277.176,681.3831 Q276.551,680.805 275.9572,680.5394 Q275.3635,680.2581 274.7385,680.2581 Q273.3947,680.2581 272.7072,681.3363 Q272.0197,682.3988 272.0197,684.4925 Q272.0197,686.5863 272.7072,687.6644 Q273.3947,688.7269 274.7385,688.7269 Q275.3635,688.7269 275.9572,688.4613 Q276.551,688.18 277.176,687.6019 L277.176,690.3206 Z " fill="#000000"/><text fill="#000000" font-family="sans-serif" font-size="14" lengthAdjust="spacing" textLength="110.4551" x="292.2488" y="689.5267">ReceiverThread</text><line style="stroke:#181818;stroke-width:0.5;" x1="242.02" x2="422.8911" y1="700.68" y2="700.68"/><line style="stroke:#181818;stroke-width:0.5;" x1="242.02" x2="422.8911" y1="708.68" y2="708.68"/><ellipse cx="252.02" cy="722.3284" fill="#84BE84" rx="3" ry="3" style="stroke:#038048;stroke-width:1;"/><text fill="#000000" font-family="sans-serif" font-size="14" lengthAdjust="spacing" textLength="156.8711" x="261.02" y="725.6751">push_to_queue(Event)</text></g><!--class SenderThread--><g class="entity" data-entity="SenderThread" data-source-line="61" data-uid="ent0013" id="entity_SenderThread"><rect fill="#F1F1F1" height="48" rx="2.5" ry="2.5" style="stroke:#181818;stroke-width:0.5;" width="130.8887" x="75.01" y="676.83"/><ellipse cx="90.01" cy="692.83" fill="#ADD1B2" rx="11" ry="11" style="stroke:#181818;stroke-width:1;"/><path d="M92.9788,698.4706 Q92.4006,698.7675 91.76,698.9081 Q91.1194,699.0644 90.4163,699.0644 Q87.9163,699.0644 86.5881,697.4238 Q85.2756,695.7675 85.2756,692.6425 Q85.2756,689.5175 86.5881,687.8613 Q87.9163,686.205 90.4163,686.205 Q91.1194,686.205 91.76,686.3613 Q92.4163,686.5175 92.9788,686.8144 L92.9788,689.5331 Q92.3538,688.955 91.76,688.6894 Q91.1663,688.4081 90.5413,688.4081 Q89.1975,688.4081 88.51,689.4863 Q87.8225,690.5488 87.8225,692.6425 Q87.8225,694.7363 88.51,695.8144 Q89.1975,696.8769 90.5413,696.8769 Q91.1663,696.8769 91.76,696.6113 Q92.3538,696.33 92.9788,695.7519 L92.9788,698.4706 Z " fill="#000000"/><text fill="#000000" font-family="sans-serif" font-size="14" lengthAdjust="spacing" textLength="98.8887" x="104.01" y="697.6767">SenderThread</text><line style="stroke:#181818;stroke-width:0.5;" x1="76.01" x2="204.8987" y1="708.83" y2="708.83"/><line style="stroke:#181818;stroke-width:0.5;" x1="76.01" x2="204.8987" y1="716.83" y2="716.83"/></g><!--class ClientMonitor--><g class="entity" data-entity="ClientMonitor" data-source-line="75" data-uid="ent0016" id="entity_ClientMonitor"><rect fill="#F1F1F1" height="48" rx="2.5" ry="2.5" style="stroke:#181818;stroke-width:0.5;" width="125.748" x="532.58" y="197.19"/><ellipse cx="547.58" cy="213.19" fill="#ADD1B2" rx="11" ry="11" style="stroke:#181818;stroke-width:1;"/><path d="M550.5487,218.8306 Q549.9706,219.1275 549.33,219.2681 Q548.6894,219.4244 547.9862,219.4244 Q545.4862,219.4244 544.1581,217.7838 Q542.8456,216.1275 542.8456,213.0025 Q542.8456,209.8775 544.1581,208.2213 Q545.4862,206.565 547.9862,206.565 Q548.6894,206.565 549.33,206.7213 Q549.9862,206.8775 550.5487,207.1744 L550.5487,209.8931 Q549.9237,209.315 549.33,209.0494 Q548.7362,208.7681 548.1112,208.7681 Q546.7675,208.7681 546.08,209.8463 Q545.3925,210.9088 545.3925,213.0025 Q545.3925,215.0963 546.08,216.1744 Q546.7675,217.2369 548.1112,217.2369 Q548.7362,217.2369 549.33,216.9713 Q549.9237,216.69 550.5487,216.1119 L550.5487,218.8306 Z " fill="#000000"/><text fill="#000000" font-family="sans-serif" font-size="14" lengthAdjust="spacing" textLength="93.748" x="561.58" y="218.0367">ClientMonitor</text><line style="stroke:#181818;stroke-width:0.5;" x1="533.58" x2="657.328" y1="229.19" y2="229.19"/><line style="stroke:#181818;stroke-width:0.5;" x1="533.58" x2="657.328" y1="237.19" y2="237.19"/></g><!--reverse link Lobby to GameSession--><g class="link" data-entity-1="Lobby" data-entity-2="GameSession" data-source-line="69" data-uid="lnk14" id="link_Lobby_GameSession"><path codeLine="69" d="M359.116,115.1328 C385.576,169.3128 422.65,245.22 445.18,291.36" fill="none" id="Lobby-backto-GameSession" style="stroke:#181818;stroke-width:1;"/><polygon fill="#181818" points="353.85,104.35,352.8887,111.4967,359.116,115.1328,360.0773,107.9861,353.85,104.35" style="stroke:#181818;stroke-width:1;"/><polygon fill="#000000" points="383.6542,146.9592,382.3257,137.5419,377.0441,140.1213,383.6542,146.9592" style="stroke:#000000;stroke-width:1;"/><text fill="#000000" font-family="sans-serif" font-size="13" lengthAdjust="spacing" textLength="59.8584" x="390.46" y="146.9669">manages</text><text fill="#000000" font-family="sans-serif" font-size="13" lengthAdjust="spacing" textLength="8.271" x="348.474" y="124.0052">1</text><text fill="#000000" font-family="sans-serif" font-size="13" lengthAdjust="spacing" textLength="6.5" x="435.4623" y="280.2363">*</text></g><!--reverse link Lobby to RaceMonitor--><g class="link" data-entity-1="Lobby" data-entity-2="RaceMonitor" data-source-line="72" data-uid="lnk15" id="link_Lobby_RaceMonitor"><path codeLine="72" d="M267.1526,112.1789 C239.5926,136.4389 215.52,157.63 189.41,180.61" fill="none" id="Lobby-backto-RaceMonitor" style="stroke:#181818;stroke-width:1;"/><polygon fill="#181818" points="276.16,104.25,269.0133,105.212,267.1526,112.1789,274.2993,111.2169,276.16,104.25" style="stroke:#181818;stroke-width:1;"/><text fill="#000000" font-family="sans-serif" font-size="13" lengthAdjust="spacing" textLength="8.271" x="260.3444" y="123.8918">1</text><text fill="#000000" font-family="sans-serif" font-size="13" lengthAdjust="spacing" textLength="8.271" x="188.2155" y="169.7235">1</text></g><!--link Lobby to ClientMonitor--><g class="link" data-entity-1="Lobby" data-entity-2="ClientMonitor" data-source-line="75" data-uid="lnk17" id="link_Lobby_ClientMonitor"><path codeLine="75" d="M440.12,104.23 C458.03,113.34 476.07,123.35 492.46,133.9 C521.49,152.58 546.9758,174.4253 567.0258,192.9753" fill="none" id="Lobby-to-ClientMonitor" style="stroke:#181818;stroke-width:1;"/><polygon fill="#181818" points="571.43,197.05,567.5402,188.0018,567.7598,193.6544,562.1073,193.8741,571.43,197.05" style="stroke:#181818;stroke-width:1;"/><polygon fill="#000000" points="526.5575,145.3318,520.8293,137.7398,517.4608,142.5567,526.5575,145.3318" style="stroke:#000000;stroke-width:1;"/><text fill="#000000" font-family="sans-serif" font-size="13" lengthAdjust="spacing" textLength="43.0942" x="531.46" y="146.9669">shares</text></g><!--link Acceptor to ClientMonitor--><g class="link" data-entity-1="Acceptor" data-entity-2="ClientMonitor" data-source-line="76" data-uid="lnk18" id="link_Acceptor_ClientMonitor"><path codeLine="76" d="M638.24,88.02 C627.92,119.9 614.0781,162.6717 604.8381,191.2117" fill="none" id="Acceptor-to-ClientMonitor" style="stroke:#181818;stroke-width:1;"/><polygon fill="#181818" points="602.99,196.92,609.5677,189.5896,604.5301,192.1631,601.9566,187.1255,602.99,196.92" style="stroke:#181818;stroke-width:1;"/><polygon fill="#000000" points="625.9202,147.2234,631.5018,139.523,625.9096,137.7128,625.9202,147.2234" style="stroke:#000000;stroke-width:1;"/><text fill="#000000" font-family="sans-serif" font-size="13" lengthAdjust="spacing" textLength="43.0942" x="636.46" y="146.9669">shares</text></g><!--reverse link RaceMonitor to RaceStruct--><g class="link" data-entity-1="RaceMonitor" data-entity-2="RaceStruct" data-source-line="82" data-uid="lnk19" id="link_RaceMonitor_RaceStruct"><path codeLine="82" d="M144.46,273.6 C144.46,310.06 144.46,351.55 144.46,385.29" fill="none" id="RaceMonitor-backto-RaceStruct" style="stroke:#181818;stroke-width:1;"/><polygon fill="#181818" points="144.46,261.6,140.46,267.6,144.46,273.6,148.46,267.6,144.46,261.6" style="stroke:#181818;stroke-width:1;"/><text fill="#000000" font-family="sans-serif" font-size="13" lengthAdjust="spacing" textLength="8.271" x="135.8206" y="281.6118">1</text><text fill="#000000" font-family="sans-serif" font-size="13" lengthAdjust="spacing" textLength="6.5" x="137.9364" y="374.7163">*</text></g><!--reverse link RaceStruct to Client--><g class="link" data-entity-1="RaceStruct" data-entity-2="Client" data-source-line="85" data-uid="lnk20" id="link_RaceStruct_Client"><path codeLine="85" d="M154.3123,462.1187 C158.4423,480.1987 160.99,491.37 165.39,510.67" fill="none" id="RaceStruct-backto-Client" style="stroke:#181818;stroke-width:1;"/><polygon fill="#181818" points="151.64,450.42,149.0766,457.1601,154.3123,462.1187,156.8757,455.3786,151.64,450.42" style="stroke:#181818;stroke-width:1;"/><text fill="#000000" font-family="sans-serif" font-size="13" lengthAdjust="spacing" textLength="8.271" x="144.2726" y="470.121">1</text><text fill="#000000" font-family="sans-serif" font-size="13" lengthAdjust="spacing" textLength="6.5" x="157.5071" y="500.0645">*</text></g><!--reverse link Client to ReceiverThread--><g class="link" data-entity-1="Client" data-entity-2="ReceiverThread" data-source-line="88" data-uid="lnk21" id="link_Client_ReceiverThread"><path codeLine="88" d="M225.5723,600.0782 C251.2523,624.0482 274.81,646.03 298.76,668.38" fill="none" id="Client-backto-ReceiverThread" style="stroke:#181818;stroke-width:1;"/><polygon fill="#181818" points="216.8,591.89,218.4568,598.9082,225.5723,600.0782,223.9156,593.06,216.8,591.89" style="stroke:#181818;stroke-width:1;"/><text fill="#000000" font-family="sans-serif" font-size="13" lengthAdjust="spacing" textLength="8.271" x="214.9329" y="611.6196">1</text><text fill="#000000" font-family="sans-serif" font-size="13" lengthAdjust="spacing" textLength="8.271" x="283.3654" y="657.5951">1</text></g><!--reverse link Client to SenderThread--><g class="link" data-entity-1="Client" data-entity-2="SenderThread" data-source-line="89" data-uid="lnk22" id="link_Client_SenderThread"><path codeLine="89" d="M162.6464,603.5838 C156.4364,630.5438 151.1,653.64 145.87,676.33" fill="none" id="Client-backto-SenderThread" style="stroke:#181818;stroke-width:1;"/><polygon fill="#181818" points="165.34,591.89,160.0953,596.839,162.6464,603.5838,167.8911,598.6347,165.34,591.89" style="stroke:#181818;stroke-width:1;"/><text fill="#000000" font-family="sans-serif" font-size="13" lengthAdjust="spacing" textLength="8.271" x="155.2715" y="611.6196">1</text><text fill="#000000" font-family="sans-serif" font-size="13" lengthAdjust="spacing" textLength="8.271" x="138.2481" y="665.6131">1</text></g><!--reverse link GameSession to GameLoop--><g class="link" data-entity-1="GameSession" data-entity-2="GameLoop" data-source-line="92" data-uid="lnk23" id="link_GameSession_GameLoop"><path codeLine="92" d="M467.8107,367.9417 C472.7807,399.2617 477.46,436.92 477.46,480.08 C477.46,480.08 477.46,480.08 477.46,701.83 C477.46,743.8 451.89,780.83 422.22,809.67" fill="none" id="GameSession-backto-GameLoop" style="stroke:#181818;stroke-width:1;"/><polygon fill="#181818" points="465.93,356.09,462.9198,362.6427,467.8107,367.9417,470.8209,361.389,465.93,356.09" style="stroke:#181818;stroke-width:1;"/><text fill="#000000" font-family="sans-serif" font-size="13" lengthAdjust="spacing" textLength="8.271" x="458.237" y="375.7853">1</text><text fill="#000000" font-family="sans-serif" font-size="13" lengthAdjust="spacing" textLength="8.271" x="423.6151" y="798.8099">1</text></g><!--reverse link GameLoop to Race--><g class="link" data-entity-1="GameLoop" data-entity-2="Race" data-source-line="95" data-uid="lnk24" id="link_GameLoop_Race"><path codeLine="95" d="M332.46,951.61 C332.46,972.12 332.46,982.22 332.46,1000.43" fill="none" id="GameLoop-backto-Race" style="stroke:#181818;stroke-width:1;"/><polygon fill="#181818" points="332.46,939.61,328.46,945.61,332.46,951.61,336.46,945.61,332.46,939.61" style="stroke:#181818;stroke-width:1;"/><text fill="#000000" font-family="sans-serif" font-size="13" lengthAdjust="spacing" textLength="8.271" x="324.0376" y="959.6027">1</text><text fill="#000000" font-family="sans-serif" font-size="13" lengthAdjust="spacing" textLength="6.5" x="325.9874" y="989.2881">*</text></g><!--link GameLoop to RaceStruct--><g class="link" data-entity-1="GameLoop" data-entity-2="RaceStruct" data-source-line="98" data-uid="lnk25" id="link_GameLoop_RaceStruct"><path codeLine="98" d="M213,844.15 C155.39,823.23 91.52,788.68 57.46,732.97 C6,648.84 21.03,602.73 57.46,511.08 C66.88,487.37 81.185,470.2502 98.865,454.2202" fill="none" id="GameLoop-to-RaceStruct" style="stroke:#181818;stroke-width:1;"/><polygon fill="#181818" points="103.31,450.19,93.9558,453.2719,99.6058,453.5485,99.3293,459.1985,103.31,450.19" style="stroke:#181818;stroke-width:1;"/><polygon fill="#000000" points="29.0554,625.4477,28.7758,634.9542,34.4169,633.303,29.0554,625.4477" style="stroke:#000000;stroke-width:1;"/><text fill="#000000" font-family="sans-serif" font-size="13" lengthAdjust="spacing" textLength="29.7832" x="39.46" y="634.7469">uses</text></g><!--reverse link Race to Car--><g class="link" data-entity-1="Race" data-entity-2="Car" data-source-line="101" data-uid="lnk26" id="link_Race_Car"><path codeLine="101" d="M332.46,1093.5 C332.46,1111.81 332.46,1121.86 332.46,1141.8" fill="none" id="Race-backto-Car" style="stroke:#181818;stroke-width:1;"/><polygon fill="#181818" points="332.46,1081.5,328.46,1087.5,332.46,1093.5,336.46,1087.5,332.46,1081.5" style="stroke:#181818;stroke-width:1;"/><text fill="#000000" font-family="sans-serif" font-size="13" lengthAdjust="spacing" textLength="8.271" x="323.8442" y="1101.2662">1</text><text fill="#000000" font-family="sans-serif" font-size="13" lengthAdjust="spacing" textLength="6.5" x="326.1259" y="1131.0331">*</text></g><!--link ReceiverThread to GameLoop--><g class="link" data-entity-1="ReceiverThread" data-entity-2="GameLoop" data-source-line="104" data-uid="lnk27" id="link_ReceiverThread_GameLoop"><path codeLine="104" d="M332.46,733.35 C332.46,754.68 332.46,777.59 332.46,803.63" fill="none" id="ReceiverThread-to-GameLoop" style="stroke:#181818;stroke-width:1;"/><polygon fill="#181818" points="332.46,809.63,336.46,800.63,332.46,804.63,328.46,800.63,332.46,809.63" style="stroke:#181818;stroke-width:1;"/><polygon fill="#000000" points="337.46,776.5364,340.3989,767.4913,334.5211,767.4913,337.46,776.5364" style="stroke:#000000;stroke-width:1;"/><text fill="#000000" font-family="sans-serif" font-size="13" lengthAdjust="spacing" textLength="79.4346" x="346.46" y="776.0369">push events</text></g><!--link ReceiverThread to Lobby--><g class="link" data-entity-1="ReceiverThread" data-entity-2="Lobby" data-source-line="105" data-uid="lnk28" id="link_ReceiverThread_Lobby"><path codeLine="105" d="M331.78,668.19 C331.2,638.33 330.46,592.32 330.46,552.38 C330.46,220.19 330.46,220.19 330.46,220.19 C330.46,181.1 330.46,142.77 330.46,110.1" fill="none" id="ReceiverThread-to-Lobby" style="stroke:#181818;stroke-width:1;"/><polygon fill="#181818" points="330.46,104.1,326.46,113.1,330.46,109.1,334.46,113.1,330.46,104.1" style="stroke:#181818;stroke-width:1;"/><polygon fill="#000000" points="335.4482,412.9964,332.5306,422.0484,338.4085,422.0345,335.4482,412.9964" style="stroke:#000000;stroke-width:1;"/><text fill="#000000" font-family="sans-serif" font-size="13" lengthAdjust="spacing" textLength="79.4346" x="344.46" y="422.4969">push events</text></g><!--reverse link Car to CarPhysics--><g class="link" data-entity-1="Car" data-entity-2="CarPhysics" data-source-line="107" data-uid="lnk29" id="link_Car_CarPhysics"><path codeLine="107" d="M332.46,1267.62 C332.46,1292.09 332.46,1308.49 332.46,1331.93" fill="none" id="Car-backto-CarPhysics" style="stroke:#181818;stroke-width:1;"/><polygon fill="none" points="332.46,1255.62,328.46,1261.62,332.46,1267.62,336.46,1261.62,332.46,1255.62" style="stroke:#181818;stroke-width:1;"/><polygon fill="#000000" points="337.46,1298.8064,340.3989,1289.7613,334.5211,1289.7613,337.46,1298.8064" style="stroke:#000000;stroke-width:1;"/><text fill="#000000" font-family="sans-serif" font-size="13" lengthAdjust="spacing" textLength="29.7832" x="346.46" y="1298.3069">uses</text></g><!--SRC=[dLJBRjim4BphAmXVaYOrYbnwC1m1Hc6q1fmqjNqNQ6bj4RL9bKiv2OpyU_asgGGzL1U9kpEZvNA7L-HUF-HXjdWayyVDOhEOhsseAEe3HIHBiTs-adD1z3Cc9wYLaDFlz0XhG6I2buJMYfsWskiOUjYArl0WEDDO8lLtTNGBdyQMIcZ8jmC3hWAkjgk8V0i5pEeQEWCu_myxhIG877i5B-IeNiAQTjEUSNNtjLAVBMEjP5-hqjQEkPXB3HlYYhafVHq9nsKYVWKrw6x9JIk1DaJwfS-kWJSnXtPnKKgQ7kLCR2b4HqptguF-ol4sDwZLx29ipIL-zT33T7xIXPO4pAlwOq9vmvFTspD5-sqnjsGh1MrgYag7gGAy_lGkiMESOQiJMJ_VTP9AtKKgqVFxhj5wLIUGARrpJFaQ6-ZO0JJka-g1EO2a1kuYZMGdkcK7fbvTuAZPcSnJ-ugiHYTs6nKWR6ChwU-uKBtaIzYfBoksRrMseVnqlHpfUcmh9LnJhssV4r9sw6SJBwwSArVpvMop-Fcu_h5u2gxKEMT9ySopcS32nKTt8t8p7fFHpIWRcOcUSqxtWAGSY2GU6MheTvgDF3iIEF3WCrDjjAjN6e_B0MeIo6KHhVrFL6QaYvVVJ3MflUDUt91YaIRJhbmmGSAFTIsueaoh11SdkLJ0bMB8tjqjnMXbGddmBb7sKB7miAojsQXyX4ZdmlmhFKoxLnejNgIvL2C2FD_U1vRi_1zZm_va10axaC0r8UsMknOk4kOGa_I4z1Y6pHhT_jOwsowpXb8xMmFx6Dje1NiX8L62MFzeUWup_ur5J2mhSCgFi6umXy32N2P2rtEv3U8M_W80]--></g></svg>