<svg xmlns="http://www.w3.org/2000/svg" xmlns:xlink="http://www.w3.org/1999/xlink" contentStyleType="text/css" data-diagram-type="SEQUENCE" height="1390px" preserveAspectRatio="none" style="width:456px;height:1390px;background:#FFFFFF;" version="1.1" viewBox="0 0 456 1390" width="456px" zoomAndPan="magnify"><defs/><g><rect fill="none" height="133.6641" style="stroke:#000000;stroke-width:1.5;" width="429.0659" x="10" y="692.6875"/><rect fill="none" height="148.4688" style="stroke:#000000;stroke-width:1.5;" width="429.0659" x="10" y="1144.5469"/><g><title>Cliente1</title><rect fill="#000000" fill-opacity="0.00000" height="1228.7188" width="8" x="48.0254" y="81.2969"/><line style="stroke:#181818;stroke-width:0.5;stroke-dasharray:5,5;" x1="52" x2="52" y1="81.2969" y2="1310.0156"/></g><g><title>Cliente2</title><rect fill="#000000" fill-opacity="0.00000" height="1228.7188" width="8" x="122.0762" y="81.2969"/><line style="stroke:#181818;stroke-width:0.5;stroke-dasharray:5,5;" x1="126.0508" x2="126.0508" y1="81.2969" y2="1310.0156"/></g><g><title>Acceptor</title><rect fill="#000000" fill-opacity="0.00000" height="1228.7188" width="8" x="204.8999" y="81.2969"/><line style="stroke:#181818;stroke-width:0.5;stroke-dasharray:5,5;" x1="208.7588" x2="208.7588" y1="81.2969" y2="1310.0156"/></g><g><title>Servidor</title><rect fill="#000000" fill-opacity="0.00000" height="1228.7188" width="8" x="388.7466" y="81.2969"/><line style="stroke:#181818;stroke-width:0.5;stroke-dasharray:5,5;" x1="392.4272" x2="392.4272" y1="81.2969" y2="1310.0156"/></g><g class="participant participant-head" data-participant="Cliente1"><text fill="#000000" font-family="sans-serif" font-size="14" lengthAdjust="spacing" textLength="58.0508" x="20" y="77.9951">Cliente1</text><ellipse cx="52.0254" cy="13.5" fill="#E2E2F0" rx="8" ry="8" style="stroke:#181818;stroke-width:0.5;"/><path d="M52.0254,21.5 L52.0254,48.5 M39.0254,29.5 L65.0254,29.5 M52.0254,48.5 L39.0254,63.5 M52.0254,48.5 L65.0254,63.5" fill="none" style="stroke:#181818;stroke-width:0.5;"/></g><g class="participant participant-tail" data-participant="Cliente1"><text fill="#000000" font-family="sans-serif" font-size="14" lengthAdjust="spacing" textLength="58.0508" x="20" y="1322.0107">Cliente1</text><ellipse cx="52.0254" cy="1333.8125" fill="#E2E2F0" rx="8" ry="8" style="stroke:#181818;stroke-width:0.5;"/><path d="M52.0254,1341.8125 L52.0254,1368.8125 M39.0254,1349.8125 L65.0254,1349.8125 M52.0254,1368.8125 L39.0254,1383.8125 M52.0254,1368.8125 L65.0254,1383.8125" fill="none" style="stroke:#181818;stroke-width:0.5;"/></g><g class="participant participant-head" data-participant="Cliente2"><text fill="#000000" font-family="sans-serif" font-size="14" lengthAdjust="spacing" textLength="58.0508" x="94.0508" y="77.9951">Cliente2</text><ellipse cx="126.0762" cy="13.5" fill="#E2E2F0" rx="8" ry="8" style="stroke:#181818;stroke-width:0.5;"/><path d="M126.0762,21.5 L126.0762,48.5 M113.0762,29.5 L139.0762,29.5 M126.0762,48.5 L113.0762,63.5 M126.0762,48.5 L139.0762,63.5" fill="none" style="stroke:#181818;stroke-width:0.5;"/></g><g class="participant participant-tail" data-participant="Cliente2"><text fill="#000000" font-family="sans-serif" font-size="14" lengthAdjust="spacing" textLength="58.0508" x="94.0508" y="1322.0107">Cliente2</text><ellipse cx="126.0762" cy="1333.8125" fill="#E2E2F0" rx="8" ry="8" style="stroke:#181818;stroke-width:0.5;"/><path d="M126.0762,1341.8125 L126.0762,1368.8125 M113.0762,1349.8125 L139.0762,1349.8125 M126.0762,1368.8125 L113.0762,1383.8125 M126.0762,1368.8125 L139.0762,1383.8125" fill="none" style="stroke:#181818;stroke-width:0.5;"/></g><g class="participant participant-head" data-participant="Acceptor"><rect fill="#E2E2F0" height="30.2969" rx="2.5" ry="2.5" style="stroke:#181818;stroke-width:0.5;" width="76.2822" x="170.7588" y="50"/><text fill="#000000" font-family="sans-serif" font-size="14" lengthAdjust="spacing" textLength="62.2822" x="177.7588" y="69.9951">Acceptor</text></g><g class="participant participant-tail" data-participant="Acceptor"><rect fill="#E2E2F0" height="30.2969" rx="2.5" ry="2.5" style="stroke:#181818;stroke-width:0.5;" width="76.2822" x="170.7588" y="1309.0156"/><text fill="#000000" font-family="sans-serif" font-size="14" lengthAdjust="spacing" textLength="62.2822" x="177.7588" y="1329.0107">Acceptor</text></g><g class="participant participant-head" data-participant="Servidor"><rect fill="#E2E2F0" height="30.2969" rx="2.5" ry="2.5" style="stroke:#181818;stroke-width:0.5;" width="72.6387" x="356.4272" y="50"/><text fill="#000000" font-family="sans-serif" font-size="14" lengthAdjust="spacing" textLength="58.6387" x="363.4272" y="69.9951">Servidor</text></g><g class="participant participant-tail" data-participant="Servidor"><rect fill="#E2E2F0" height="30.2969" rx="2.5" ry="2.5" style="stroke:#181818;stroke-width:0.5;" width="72.6387" x="356.4272" y="1309.0156"/><text fill="#000000" font-family="sans-serif" font-size="14" lengthAdjust="spacing" textLength="58.6387" x="363.4272" y="1329.0107">Servidor</text></g><rect fill="#EEEEEE" height="3" style="stroke:#EEEEEE;stroke-width:1;" width="449.0659" x="0" y="111.8633"/><line style="stroke:#000000;stroke-width:1;" x1="0" x2="449.0659" y1="111.8633" y2="111.8633"/><line style="stroke:#000000;stroke-width:1;" x1="0" x2="449.0659" y1="114.8633" y2="114.8633"/><rect fill="#EEEEEE" height="23.1328" style="stroke:#000000;stroke-width:2;" width="86.0967" x="181.4846" y="101.2969"/><text fill="#000000" font-family="sans-serif" font-size="13" font-weight="bold" lengthAdjust="spacing" textLength="67.5708" x="187.4846" y="117.3638">Conexi&#243;n</text><g class="message" data-participant-1="Cliente1" data-participant-2="Acceptor"><polygon fill="#181818" points="196.8999,151.5625,206.8999,155.5625,196.8999,159.5625,200.8999,155.5625" style="stroke:#181818;stroke-width:1;"/><line style="stroke:#181818;stroke-width:1;" x1="52.0254" x2="202.8999" y1="155.5625" y2="155.5625"/><text fill="#000000" font-family="sans-serif" font-size="13" lengthAdjust="spacing" textLength="58.8237" x="59.0254" y="150.4966">Conectar</text></g><g class="message" data-participant-1="Acceptor" data-participant-2="Servidor"><polygon fill="#181818" points="380.7466,180.6953,390.7466,184.6953,380.7466,188.6953,384.7466,184.6953" style="stroke:#181818;stroke-width:1;"/><line style="stroke:#181818;stroke-width:1;" x1="208.8999" x2="386.7466" y1="184.6953" y2="184.6953"/><text fill="#000000" font-family="sans-serif" font-size="13" lengthAdjust="spacing" textLength="159.8467" x="215.8999" y="179.6294">nuevo cliente conectado</text></g><g class="message" data-participant-1="Cliente2" data-participant-2="Acceptor"><polygon fill="#181818" points="196.8999,209.8281,206.8999,213.8281,196.8999,217.8281,200.8999,213.8281" style="stroke:#181818;stroke-width:1;"/><line style="stroke:#181818;stroke-width:1;" x1="126.0762" x2="202.8999" y1="213.8281" y2="213.8281"/><text fill="#000000" font-family="sans-serif" font-size="13" lengthAdjust="spacing" textLength="58.8237" x="133.0762" y="208.7622">Conectar</text></g><g class="message" data-participant-1="Acceptor" data-participant-2="Servidor"><polygon fill="#181818" points="380.7466,238.9609,390.7466,242.9609,380.7466,246.9609,384.7466,242.9609" style="stroke:#181818;stroke-width:1;"/><line style="stroke:#181818;stroke-width:1;" x1="208.8999" x2="386.7466" y1="242.9609" y2="242.9609"/><text fill="#000000" font-family="sans-serif" font-size="13" lengthAdjust="spacing" textLength="159.8467" x="215.8999" y="237.895">nuevo cliente conectado</text></g><rect fill="#EEEEEE" height="3" style="stroke:#EEEEEE;stroke-width:1;" width="449.0659" x="0" y="271.5273"/><line style="stroke:#000000;stroke-width:1;" x1="0" x2="449.0659" y1="271.5273" y2="271.5273"/><line style="stroke:#000000;stroke-width:1;" x1="0" x2="449.0659" y1="274.5273" y2="274.5273"/><rect fill="#EEEEEE" height="23.1328" style="stroke:#000000;stroke-width:2;" width="193.061" x="128.0024" y="260.9609"/><text fill="#000000" font-family="sans-serif" font-size="13" font-weight="bold" lengthAdjust="spacing" textLength="174.5352" x="134.0024" y="277.0278">Crear y unirse a carrera</text><g class="message" data-participant-1="Cliente1" data-participant-2="Servidor"><polygon fill="#181818" points="380.7466,311.2266,390.7466,315.2266,380.7466,319.2266,384.7466,315.2266" style="stroke:#181818;stroke-width:1;"/><line style="stroke:#181818;stroke-width:1;" x1="52.0254" x2="386.7466" y1="315.2266" y2="315.2266"/><text fill="#000000" font-family="sans-serif" font-size="13" lengthAdjust="spacing" textLength="75.626" x="59.0254" y="310.1606">CreateRace</text></g><g class="message" data-participant-1="Servidor" data-participant-2="Cliente1"><polygon fill="#181818" points="63.0254,340.3594,53.0254,344.3594,63.0254,348.3594,59.0254,344.3594" style="stroke:#181818;stroke-width:1;"/><line style="stroke:#181818;stroke-width:1;stroke-dasharray:2,2;" x1="57.0254" x2="391.7466" y1="344.3594" y2="344.3594"/><text fill="#000000" font-family="sans-serif" font-size="13" lengthAdjust="spacing" textLength="83.8779" x="69.0254" y="339.2935">RaceCreated</text></g><g class="message" data-participant-1="Cliente2" data-participant-2="Servidor"><polygon fill="#181818" points="380.7466,369.4922,390.7466,373.4922,380.7466,377.4922,384.7466,373.4922" style="stroke:#181818;stroke-width:1;"/><line style="stroke:#181818;stroke-width:1;" x1="126.0762" x2="386.7466" y1="373.4922" y2="373.4922"/><text fill="#000000" font-family="sans-serif" font-size="13" lengthAdjust="spacing" textLength="55.7832" x="133.0762" y="368.4263">JoinRace</text></g><g class="message" data-participant-1="Servidor" data-participant-2="Cliente2"><polygon fill="#181818" points="137.0762,398.625,127.0762,402.625,137.0762,406.625,133.0762,402.625" style="stroke:#181818;stroke-width:1;"/><line style="stroke:#181818;stroke-width:1;stroke-dasharray:2,2;" x1="131.0762" x2="391.7466" y1="402.625" y2="402.625"/><text fill="#000000" font-family="sans-serif" font-size="13" lengthAdjust="spacing" textLength="133.3579" x="143.0762" y="397.5591">JoinRaceResult(true)</text></g><rect fill="#EEEEEE" height="3" style="stroke:#EEEEEE;stroke-width:1;" width="449.0659" x="0" y="431.1914"/><line style="stroke:#000000;stroke-width:1;" x1="0" x2="449.0659" y1="431.1914" y2="431.1914"/><line style="stroke:#000000;stroke-width:1;" x1="0" x2="449.0659" y1="434.1914" y2="434.1914"/><rect fill="#EEEEEE" height="23.1328" style="stroke:#000000;stroke-width:2;" width="156.397" x="146.3345" y="420.625"/><text fill="#000000" font-family="sans-serif" font-size="13" font-weight="bold" lengthAdjust="spacing" textLength="137.8711" x="152.3345" y="436.6919">Inicio de la carrera</text><g class="message" data-participant-1="Cliente1" data-participant-2="Servidor"><polygon fill="#181818" points="380.7466,470.8906,390.7466,474.8906,380.7466,478.8906,384.7466,474.8906" style="stroke:#181818;stroke-width:1;"/><line style="stroke:#181818;stroke-width:1;" x1="52.0254" x2="386.7466" y1="474.8906" y2="474.8906"/><text fill="#000000" font-family="sans-serif" font-size="13" lengthAdjust="spacing" textLength="70.459" x="59.0254" y="469.8247">StartGame</text></g><g class="message" data-participant-1="Servidor" data-participant-2="Cliente1"><polygon fill="#181818" points="63.0254,500.0234,53.0254,504.0234,63.0254,508.0234,59.0254,504.0234" style="stroke:#181818;stroke-width:1;"/><line style="stroke:#181818;stroke-width:1;stroke-dasharray:2,2;" x1="57.0254" x2="391.7466" y1="504.0234" y2="504.0234"/><text fill="#000000" font-family="sans-serif" font-size="13" lengthAdjust="spacing" textLength="86.709" x="69.0254" y="498.9575">GameStarted</text></g><g class="message" data-participant-1="Servidor" data-participant-2="Cliente2"><polygon fill="#181818" points="137.0762,529.1563,127.0762,533.1563,137.0762,537.1563,133.0762,533.1563" style="stroke:#181818;stroke-width:1;"/><line style="stroke:#181818;stroke-width:1;stroke-dasharray:2,2;" x1="131.0762" x2="391.7466" y1="533.1563" y2="533.1563"/><text fill="#000000" font-family="sans-serif" font-size="13" lengthAdjust="spacing" textLength="86.709" x="143.0762" y="528.0903">GameStarted</text></g><rect fill="#EEEEEE" height="3" style="stroke:#EEEEEE;stroke-width:1;" width="449.0659" x="0" y="561.7227"/><line style="stroke:#000000;stroke-width:1;" x1="0" x2="449.0659" y1="561.7227" y2="561.7227"/><line style="stroke:#000000;stroke-width:1;" x1="0" x2="449.0659" y1="564.7227" y2="564.7227"/><rect fill="#EEEEEE" height="23.1328" style="stroke:#000000;stroke-width:2;" width="148.3799" x="150.343" y="551.1563"/><text fill="#000000" font-family="sans-serif" font-size="13" font-weight="bold" lengthAdjust="spacing" textLength="129.854" x="156.343" y="567.2231">Selecci&#243;n de auto</text><g class="message" data-participant-1="Cliente1" data-participant-2="Servidor"><polygon fill="#181818" points="380.7466,601.4219,390.7466,605.4219,380.7466,609.4219,384.7466,605.4219" style="stroke:#181818;stroke-width:1;"/><line style="stroke:#181818;stroke-width:1;" x1="52.0254" x2="386.7466" y1="605.4219" y2="605.4219"/><text fill="#000000" font-family="sans-serif" font-size="13" lengthAdjust="spacing" textLength="62.4927" x="59.0254" y="600.356">SelectCar</text></g><g class="message" data-participant-1="Cliente2" data-participant-2="Servidor"><polygon fill="#181818" points="380.7466,630.5547,390.7466,634.5547,380.7466,638.5547,384.7466,634.5547" style="stroke:#181818;stroke-width:1;"/><line style="stroke:#181818;stroke-width:1;" x1="126.0762" x2="386.7466" y1="634.5547" y2="634.5547"/><text fill="#000000" font-family="sans-serif" font-size="13" lengthAdjust="spacing" textLength="62.4927" x="133.0762" y="629.4888">SelectCar</text></g><rect fill="#EEEEEE" height="3" style="stroke:#EEEEEE;stroke-width:1;" width="449.0659" x="0" y="663.1211"/><line style="stroke:#000000;stroke-width:1;" x1="0" x2="449.0659" y1="663.1211" y2="663.1211"/><line style="stroke:#000000;stroke-width:1;" x1="0" x2="449.0659" y1="666.1211" y2="666.1211"/><rect fill="#EEEEEE" height="23.1328" style="stroke:#000000;stroke-width:2;" width="156.8984" x="146.0837" y="652.5547"/><text fill="#000000" font-family="sans-serif" font-size="13" font-weight="bold" lengthAdjust="spacing" textLength="138.3726" x="152.0837" y="668.6216">Bucle de la carrera</text><path d="M10,692.6875 L86.624,692.6875 L86.624,699.8203 L76.624,709.8203 L10,709.8203 L10,692.6875" fill="#EEEEEE" style="stroke:#000000;stroke-width:1.5;"/><rect fill="none" height="133.6641" style="stroke:#000000;stroke-width:1.5;" width="429.0659" x="10" y="692.6875"/><text fill="#000000" font-family="sans-serif" font-size="13" font-weight="bold" lengthAdjust="spacing" textLength="31.624" x="25" y="705.7544">loop</text><text fill="#000000" font-family="sans-serif" font-size="11" font-weight="bold" lengthAdjust="spacing" textLength="194.96" x="101.624" y="704.8979">[Para cada frame de la carrera]</text><g class="message" data-participant-1="Cliente1" data-participant-2="Servidor"><polygon fill="#181818" points="380.7466,726.9531,390.7466,730.9531,380.7466,734.9531,384.7466,730.9531" style="stroke:#181818;stroke-width:1;"/><line style="stroke:#181818;stroke-width:1;" x1="52.0254" x2="386.7466" y1="730.9531" y2="730.9531"/><text fill="#000000" font-family="sans-serif" font-size="13" lengthAdjust="spacing" textLength="97.9189" x="59.0254" y="725.8872">ActionMessage</text></g><g class="message" data-participant-1="Cliente2" data-participant-2="Servidor"><polygon fill="#181818" points="380.7466,756.0859,390.7466,760.0859,380.7466,764.0859,384.7466,760.0859" style="stroke:#181818;stroke-width:1;"/><line style="stroke:#181818;stroke-width:1;" x1="126.0762" x2="386.7466" y1="760.0859" y2="760.0859"/><text fill="#000000" font-family="sans-serif" font-size="13" lengthAdjust="spacing" textLength="97.9189" x="133.0762" y="755.02">ActionMessage</text></g><g class="message" data-participant-1="Servidor" data-participant-2="Cliente1"><polygon fill="#181818" points="63.0254,785.2188,53.0254,789.2188,63.0254,793.2188,59.0254,789.2188" style="stroke:#181818;stroke-width:1;"/><line style="stroke:#181818;stroke-width:1;" x1="57.0254" x2="391.7466" y1="789.2188" y2="789.2188"/><text fill="#000000" font-family="sans-serif" font-size="13" lengthAdjust="spacing" textLength="81.4912" x="69.0254" y="784.1528">StateUpdate</text></g><g class="message" data-participant-1="Servidor" data-participant-2="Cliente2"><polygon fill="#181818" points="137.0762,814.3516,127.0762,818.3516,137.0762,822.3516,133.0762,818.3516" style="stroke:#181818;stroke-width:1;"/><line style="stroke:#181818;stroke-width:1;" x1="131.0762" x2="391.7466" y1="818.3516" y2="818.3516"/><text fill="#000000" font-family="sans-serif" font-size="13" lengthAdjust="spacing" textLength="81.4912" x="143.0762" y="813.2856">StateUpdate</text></g><rect fill="#EEEEEE" height="3" style="stroke:#EEEEEE;stroke-width:1;" width="449.0659" x="0" y="853.918"/><line style="stroke:#000000;stroke-width:1;" x1="0" x2="449.0659" y1="853.918" y2="853.918"/><line style="stroke:#000000;stroke-width:1;" x1="0" x2="449.0659" y1="856.918" y2="856.918"/><rect fill="#EEEEEE" height="23.1328" style="stroke:#000000;stroke-width:2;" width="134.8213" x="157.1223" y="843.3516"/><text fill="#000000" font-family="sans-serif" font-size="13" font-weight="bold" lengthAdjust="spacing" textLength="116.2954" x="163.1223" y="859.4185">Final de carrera</text><g class="message" data-participant-1="Servidor" data-participant-2="Cliente1"><polygon fill="#181818" points="63.0254,893.6172,53.0254,897.6172,63.0254,901.6172,59.0254,897.6172" style="stroke:#181818;stroke-width:1;"/><line style="stroke:#181818;stroke-width:1;" x1="57.0254" x2="391.7466" y1="897.6172" y2="897.6172"/><text fill="#000000" font-family="sans-serif" font-size="13" lengthAdjust="spacing" textLength="70.0972" x="69.0254" y="892.5513">RaceFinish</text></g><g class="message" data-participant-1="Servidor" data-participant-2="Cliente2"><polygon fill="#181818" points="137.0762,922.75,127.0762,926.75,137.0762,930.75,133.0762,926.75" style="stroke:#181818;stroke-width:1;"/><line style="stroke:#181818;stroke-width:1;" x1="131.0762" x2="391.7466" y1="926.75" y2="926.75"/><text fill="#000000" font-family="sans-serif" font-size="13" lengthAdjust="spacing" textLength="70.0972" x="143.0762" y="921.6841">RaceFinish</text></g><g class="message" data-participant-1="Servidor" data-participant-2="Cliente1"><polygon fill="#181818" points="63.0254,951.8828,53.0254,955.8828,63.0254,959.8828,59.0254,955.8828" style="stroke:#181818;stroke-width:1;"/><line style="stroke:#181818;stroke-width:1;" x1="57.0254" x2="391.7466" y1="955.8828" y2="955.8828"/><text fill="#000000" font-family="sans-serif" font-size="13" lengthAdjust="spacing" textLength="89.9971" x="69.0254" y="950.8169">RacePositions</text></g><g class="message" data-participant-1="Servidor" data-participant-2="Cliente2"><polygon fill="#181818" points="137.0762,981.0156,127.0762,985.0156,137.0762,989.0156,133.0762,985.0156" style="stroke:#181818;stroke-width:1;"/><line style="stroke:#181818;stroke-width:1;" x1="131.0762" x2="391.7466" y1="985.0156" y2="985.0156"/><text fill="#000000" font-family="sans-serif" font-size="13" lengthAdjust="spacing" textLength="89.9971" x="143.0762" y="979.9497">RacePositions</text></g><rect fill="#EEEEEE" height="3" style="stroke:#EEEEEE;stroke-width:1;" width="449.0659" x="0" y="1013.582"/><line style="stroke:#000000;stroke-width:1;" x1="0" x2="449.0659" y1="1013.582" y2="1013.582"/><line style="stroke:#000000;stroke-width:1;" x1="0" x2="449.0659" y1="1016.582" y2="1016.582"/><rect fill="#EEEEEE" height="23.1328" style="stroke:#000000;stroke-width:2;" width="76.5879" x="186.239" y="1003.0156"/><text fill="#000000" font-family="sans-serif" font-size="13" font-weight="bold" lengthAdjust="spacing" textLength="58.062" x="192.239" y="1019.0825">Mejoras</text><g class="message" data-participant-1="Cliente1" data-participant-2="Servidor"><polygon fill="#181818" points="380.7466,1053.2813,390.7466,1057.2813,380.7466,1061.2813,384.7466,1057.2813" style="stroke:#181818;stroke-width:1;"/><line style="stroke:#181818;stroke-width:1;" x1="52.0254" x2="386.7466" y1="1057.2813" y2="1057.2813"/><text fill="#000000" font-family="sans-serif" font-size="13" lengthAdjust="spacing" textLength="62.353" x="59.0254" y="1052.2153">Upgrades</text></g><g class="message" data-participant-1="Cliente2" data-participant-2="Servidor"><polygon fill="#181818" points="380.7466,1082.4141,390.7466,1086.4141,380.7466,1090.4141,384.7466,1086.4141" style="stroke:#181818;stroke-width:1;"/><line style="stroke:#181818;stroke-width:1;" x1="126.0762" x2="386.7466" y1="1086.4141" y2="1086.4141"/><text fill="#000000" font-family="sans-serif" font-size="13" lengthAdjust="spacing" textLength="62.353" x="133.0762" y="1081.3481">Upgrades</text></g><rect fill="#EEEEEE" height="3" style="stroke:#EEEEEE;stroke-width:1;" width="449.0659" x="0" y="1114.9805"/><line style="stroke:#000000;stroke-width:1;" x1="0" x2="449.0659" y1="1114.9805" y2="1114.9805"/><line style="stroke:#000000;stroke-width:1;" x1="0" x2="449.0659" y1="1117.9805" y2="1117.9805"/><rect fill="#EEEEEE" height="23.1328" style="stroke:#000000;stroke-width:2;" width="159.9009" x="144.5825" y="1104.4141"/><text fill="#000000" font-family="sans-serif" font-size="13" font-weight="bold" lengthAdjust="spacing" textLength="141.375" x="150.5825" y="1120.481">Nueva carrera o fin</text><path d="M10,1144.5469 L74.4429,1144.5469 L74.4429,1151.6797 L64.4429,1161.6797 L10,1161.6797 L10,1144.5469" fill="#EEEEEE" style="stroke:#000000;stroke-width:1.5;"/><rect fill="none" height="148.4688" style="stroke:#000000;stroke-width:1.5;" width="429.0659" x="10" y="1144.5469"/><text fill="#000000" font-family="sans-serif" font-size="13" font-weight="bold" lengthAdjust="spacing" textLength="19.4429" x="25" y="1157.6138">alt</text><text fill="#000000" font-family="sans-serif" font-size="11" font-weight="bold" lengthAdjust="spacing" textLength="98.0762" x="89.4429" y="1156.7573">[Nueva carrera]</text><g class="message" data-participant-1="Servidor" data-participant-2="Cliente1"><polygon fill="#181818" points="63.0254,1178.8125,53.0254,1182.8125,63.0254,1186.8125,59.0254,1182.8125" style="stroke:#181818;stroke-width:1;"/><line style="stroke:#181818;stroke-width:1;" x1="57.0254" x2="391.7466" y1="1182.8125" y2="1182.8125"/><text fill="#000000" font-family="sans-serif" font-size="13" lengthAdjust="spacing" textLength="94.415" x="69.0254" y="1177.7466">StartNextRace</text></g><g class="message" data-participant-1="Servidor" data-participant-2="Cliente2"><polygon fill="#181818" points="137.0762,1207.9453,127.0762,1211.9453,137.0762,1215.9453,133.0762,1211.9453" style="stroke:#181818;stroke-width:1;"/><line style="stroke:#181818;stroke-width:1;" x1="131.0762" x2="391.7466" y1="1211.9453" y2="1211.9453"/><text fill="#000000" font-family="sans-serif" font-size="13" lengthAdjust="spacing" textLength="94.415" x="143.0762" y="1206.8794">StartNextRace</text></g><line style="stroke:#000000;stroke-width:1;stroke-dasharray:2,2;" x1="10" x2="439.0659" y1="1220.9453" y2="1220.9453"/><text fill="#000000" font-family="sans-serif" font-size="11" font-weight="bold" lengthAdjust="spacing" textLength="97.3296" x="15" y="1231.1558">[Juego termina]</text><g class="message" data-participant-1="Servidor" data-participant-2="Cliente1"><polygon fill="#181818" points="63.0254,1251.8828,53.0254,1255.8828,63.0254,1259.8828,59.0254,1255.8828" style="stroke:#181818;stroke-width:1;"/><line style="stroke:#181818;stroke-width:1;" x1="57.0254" x2="391.7466" y1="1255.8828" y2="1255.8828"/><text fill="#000000" font-family="sans-serif" font-size="13" lengthAdjust="spacing" textLength="69.9702" x="69.0254" y="1250.8169">GameOver</text></g><g class="message" data-participant-1="Servidor" data-participant-2="Cliente2"><polygon fill="#181818" points="137.0762,1281.0156,127.0762,1285.0156,137.0762,1289.0156,133.0762,1285.0156" style="stroke:#181818;stroke-width:1;"/><line style="stroke:#181818;stroke-width:1;" x1="131.0762" x2="391.7466" y1="1285.0156" y2="1285.0156"/><text fill="#000000" font-family="sans-serif" font-size="13" lengthAdjust="spacing" textLength="69.9702" x="143.0762" y="1279.9497">GameOver</text></g><!--SRC=[hPHDJiCm48NtFiKiOT45MLOgKga40eaVjUe1HivGZ8mTZISLd8iZS376gT8aq4Giw29IPpu_Fx-9WrOYmyex2a8N1lj_2rCXYxEkmY2mj9OgxGwA6-AzAxLe5WjOnK3lxkipm69XMacONHwNpXl42h9fIxdTYimXrBIFO0zBmHxWCffMhVWVjUoL2Ha-e0wE4m62HMPY_6czKyihXDPeoRH5c2dHqdF8lGDL3Xrt8dVHXL69ekklATLUpeHhEc_ytWQDF499uF_WTQEXo0s-ZLhDlGPIgoDM-aXsi25FrZRZLHTOIvpOFxEoqicSZg7hP-MhsdhwVJGVOmLFoBbO8Zop6XfI1lHtsi7IYelXdbB27VMvOefhm2wFVc8QXT2sAlKvHXL3Yi8Xk6iNq6VZlRETtYDFNccNNinf-Hum8V4KaykdIXCg7PCjtjDhP4pZ0zrMEyQIqiWyZ-qizg3NhXjaX6VNV13Gox0r7JRB0xrBSrScu-vnvFKctzMqYo34Rnhxn1RvzNxS4q-e7n6Tv3S0]--></g></svg>